#!OML:ASF H:\Male1\Project 1\Capture day 1\Session 1\Male1.ASF
:FULLY-SPECIFIED
:DEGREES
475
root 23.0826 14.1554 8.01254 -524.545 -45.854 -195.364
lowerback 16.1744 2.28151 -9.80807
upperback 6.27609 0.478304 -4.86749
thorax -2.41694 -0.180653 0.295607
lowerneck -4.3043 -1.38882 1.60645
upperneck -7.38053 -2.0742 1.70254
head -1.55971 -1.21386 0.265636
rclavicle 4.75095e-014 5.68524e-014
rhumerus -57.9872 18.3832 -99.7933
rradius 104.06
rwrist -25.8575
rhand -32.7311 20.9354
rfingers 7.12502
rthumb -5.95465 -8.96092
lclavicle 4.75095e-014 5.68524e-014
lhumerus -48.8409 -0.19988 70.7689
lradius 94.699
lwrist 10.965
lhand -22.7614 2.54707
lfingers 7.12502
lthumb 3.67354 32.4952
rfemur -38.015 -2.15751 18.559
rtibia 88.7278
rfoot -18.7935 -17.6579
rtoes -17.6107
lfemur -0.981767 -6.16175 -21.8103
ltibia 33.4289
lfoot -25.8045 11.5738
ltoes -41.5377
476
root 22.7408 14.241 7.63011 -525.137 -45.4375 -194.533
lowerback 15.7683 1.96606 -9.48097
upperback 6.22134 0.211155 -4.63391
thorax -2.2407 -0.301151 0.416475
lowerneck -4.33158 -1.11275 1.6658
upperneck -7.18128 -1.72884 1.11396
head -1.49764 -1.02762 0.0721629
rclavicle -6.08281e-014 -3.93594e-014
rhumerus -60.1944 17.4155 -99.5662
rradius 103.392
rwrist -27.1249
rhand -33.4004 20.4073
rfingers 7.12502
rthumb -6.60078 -9.46983
lclavicle -6.08281e-014 -3.93594e-014
lhumerus -47.1186 -1.01658 70.8837
lradius 97.8174
lwrist 10.1827
lhand -22.8182 1.79992
lfingers 7.12502
lthumb 3.61871 31.7489
rfemur -40.6612 -2.35331 18.1495
rtibia 86.0583
rfoot -19.3944 -17.7456
rtoes -18.1213
lfemur 2.83355 -7.15041 -21.8068
ltibia 30.181
lfoot -23.1983 11.8582
ltoes -39.7693
477
root 22.3974 14.3548 7.21611 -525.787 -44.9466 -193.537
lowerback 15.2459 1.69417 -9.11409
upperback 6.15027 0.0257638 -4.34761
thorax -2.02549 -0.379128 0.553242
lowerneck -4.45992 -0.811831 1.67111
upperneck -6.91459 -1.35076 0.499471
head -1.39518 -0.823535 -0.120208
rclavicle 3.39922e-014 -1.15295e-014
rhumerus -62.1375 16.5251 -99.2296
rradius 102.716
rwrist -28.313
rhand -33.7445 20.067
rfingers 7.12502
rthumb -6.93289 -9.79946
lclavicle 3.39922e-014 -1.15295e-014
lhumerus -45.9398 -1.75282 71.1308
lradius 101.262
lwrist 9.37978
lhand -22.8661 1.03078
lfingers 7.12502
lthumb 3.57241 30.9806
rfemur -42.5431 -2.07253 17.8774
rtibia 82.1177
rfoot -19.8556 -17.8317
rtoes -18.6479
lfemur 6.58524 -8.35396 -21.8058
ltibia 26.8837
lfoot -19.4764 12.1999
ltoes -37.1779
478
root 22.0539 14.4866 6.77537 -526.538 -44.4234 -192.363
lowerback 14.6748 1.45818 -8.68641
upperback 6.08974 -0.0976903 -3.99647
thorax -1.777 -0.425995 0.710254
lowerneck -4.6994 -0.491055 1.66401
upperneck -6.64595 -0.950917 -0.163911
head -1.27216 -0.610977 -0.324314
rclavicle -7.43455e-014 1.22054e-013
rhumerus -63.7263 15.7403 -98.7741
rradius 101.997
rwrist -29.4087
rhand -33.7654 19.9328
rfingers 7.12502
rthumb -6.95314 -9.93299
lclavicle -7.43455e-014 1.22054e-013
lhumerus -45.2576 -2.46065 71.5424
lradius 104.855
lwrist 8.45353
lhand -22.9684 0.17117
lfingers 7.12502
lthumb 3.47366 30.1226
rfemur -43.6222 -1.34851 17.6853
rtibia 77.1259
rfoot -20.3146 -17.8422
rtoes -19.2394
lfemur 10.044 -9.61055 -21.7099
ltibia 23.9573
lfoot -14.8437 12.5052
ltoes -34.1223
479
root 21.7104 14.6226 6.31368 -527.387 -43.8972 -191.09
lowerback 14.1197 1.24424 -8.20619
upperback 6.07079 -0.195832 -3.61931
thorax -1.49454 -0.463327 0.857186
lowerneck -5.05133 -0.146719 1.66736
upperneck -6.40665 -0.522788 -0.794912
head -1.13761 -0.389799 -0.518501
rclavicle -3.24019e-014 1.94809e-014
rhumerus -64.8972 15.1236 -98.2558
rradius 101.207
rwrist -30.4285
rhand -33.583 19.8969
rfingers 7.12502
rthumb -6.77706 -9.97461
lclavicle -3.24019e-014 1.94809e-014
lhumerus -45.0423 -3.15295 72.095
lradius 108.45
lwrist 7.51634
lhand -23.1387 -1.01504
lfingers 7.12502
lthumb 3.30919 28.939
rfemur -43.918 -0.197976 17.4398
rtibia 71.398
rfoot -20.7977 -17.7722
rtoes -20.1209
lfemur 12.8831 -10.7586 -21.5014
ltibia 22.0808
lfoot -9.89648 12.6116
ltoes -30.513
480
root 21.3692 14.7457 5.83891 -528.417 -43.4297 -189.694
lowerback 13.643 1.0446 -7.57505
upperback 6.12964 -0.278413 -3.23778
thorax -1.17468 -0.496696 0.918342
lowerneck -5.47625 0.186725 1.72277
upperneck -6.23097 -0.114458 -1.39241
head -1.00927 -0.185172 -0.709726
rclavicle 1.88845e-014 -6.36111e-015
rhumerus -65.5919 14.6842 -97.7141
rradius 100.365
rwrist -31.3381
rhand -33.3516 19.9418
rfingers 7.12502
rthumb -6.55366 -9.9368
lclavicle 1.88845e-014 -6.36111e-015
lhumerus -45.2058 -3.88752 72.7563
lradius 111.874
lwrist 6.62403
lhand -23.2026 -2.29524
lfingers 7.12502
lthumb 3.24749 27.6598
rfemur -43.5118 1.3667 17.1321
rtibia 65.3824
rfoot -21.2045 -17.6873
rtoes -21.1472
lfemur 14.7564 -11.612 -21.0995
ltibia 22.0366
lfoot -5.23962 12.4769
ltoes -28.5737
